<svg width="11" height="24" viewBox="0 0 11 24" fill="none" xmlns="http://www.w3.org/2000/svg">
<path d="M5.418 7.5C5.94255 6.85252 6.63416 6.36079 7.418 6.078C7.50948 6.04567 7.58958 5.98743 7.64853 5.91036C7.70748 5.8333 7.74274 5.74075 7.75 5.644V5.499C7.5584 4.32482 7.02642 3.23269 6.22 2.358C6.07756 2.18045 5.99995 1.95962 6 1.732V0.75C6 0.551088 5.92098 0.360322 5.78033 0.21967C5.63968 0.0790176 5.44891 0 5.25 0C5.05109 0 4.86032 0.0790176 4.71967 0.21967C4.57902 0.360322 4.5 0.551088 4.5 0.75V1.735C4.50047 1.96239 4.4228 2.18304 4.28 2.36C3.47385 3.23449 2.9419 4.32621 2.75 5.5C2.75 5.548 2.75 5.6 2.756 5.646C2.76326 5.74275 2.79852 5.8353 2.85747 5.91236C2.91642 5.98943 2.99652 6.04767 3.088 6.08C3.86972 6.36265 4.55925 6.8537 5.082 7.5C5.10245 7.52474 5.12812 7.54465 5.15716 7.55832C5.1862 7.57199 5.2179 7.57908 5.25 7.57908C5.2821 7.57908 5.3138 7.57199 5.34284 7.55832C5.37188 7.54465 5.39755 7.52474 5.418 7.5V7.5Z" fill="#339B76"/>
<path d="M1.338 10.042C2.21725 10.2334 3.06799 10.538 3.869 10.948C3.90683 10.9717 3.95031 10.9847 3.99491 10.9858C4.0395 10.9869 4.08357 10.976 4.12251 10.9542C4.16145 10.9324 4.19383 10.9006 4.21625 10.8621C4.23868 10.8235 4.25034 10.7796 4.25 10.735C4.24816 10.1866 4.33668 9.64163 4.512 9.122C4.56621 8.96097 4.5785 8.78879 4.5477 8.6217C4.51691 8.45461 4.44405 8.29812 4.336 8.167C3.92184 7.66329 3.39026 7.26907 2.788 7.019L1.855 6.736C1.7524 6.70491 1.66251 6.64167 1.59859 6.5556C1.53467 6.46954 1.50011 6.36521 1.5 6.258V3.25C1.5 3.05109 1.42098 2.86032 1.28033 2.71967C1.13968 2.57902 0.948912 2.5 0.75 2.5C0.551088 2.5 0.360322 2.57902 0.21967 2.71967C0.0790175 2.86032 0 3.05109 0 3.25V7.15C0.00739294 8.05316 0.295344 8.93169 0.824 9.664C0.949463 9.84274 1.12999 9.9755 1.338 10.042Z" fill="#339B76"/>
<path d="M9.74988 2.5C9.55096 2.5 9.3602 2.57902 9.21955 2.71967C9.07889 2.86032 8.99988 3.05109 8.99988 3.25V6.258C8.99977 6.36521 8.9652 6.46954 8.90128 6.5556C8.83736 6.64167 8.74748 6.70491 8.64488 6.736L7.71188 7.019C6.85542 7.3755 6.1495 8.01861 5.71497 8.83824C5.28044 9.65787 5.1443 10.6031 5.32988 11.512C5.33915 11.5561 5.36013 11.5969 5.39063 11.6302C5.42112 11.6634 5.46 11.6878 5.50318 11.7008C5.54636 11.7137 5.59224 11.7149 5.636 11.704C5.67976 11.6931 5.71979 11.6707 5.75188 11.639C6.71536 10.8038 7.8929 10.2541 9.15188 10.052C9.35845 9.98644 9.53814 9.85553 9.66388 9.679C10.1981 8.9437 10.4894 8.05987 10.4969 7.151V3.25C10.4969 3.05161 10.4183 2.86129 10.2783 2.72073C10.1383 2.58016 9.94827 2.50079 9.74988 2.5V2.5Z" fill="#339B76"/>
<path d="M1.33506 14.5472C2.21564 14.7367 3.06803 15.0392 3.87106 15.4472C3.90849 15.4701 3.95131 15.4827 3.99518 15.4838C4.03905 15.4848 4.08242 15.4742 4.1209 15.4531C4.15937 15.432 4.19158 15.4011 4.21426 15.3635C4.23695 15.326 4.24929 15.2831 4.25006 15.2392C4.24822 14.6898 4.33673 14.1438 4.51206 13.6232C4.56566 13.4623 4.57772 13.2905 4.54712 13.1237C4.51653 12.9569 4.44427 12.8006 4.33706 12.6692C3.92198 12.1647 3.38939 11.7698 2.78606 11.5192L0.474061 10.8192C0.411337 10.8003 0.343718 10.8068 0.285747 10.8373C0.227776 10.8678 0.184081 10.9198 0.164061 10.9822C0.014636 11.5305 -0.00263882 12.1064 0.113655 12.6626C0.229949 13.2189 0.476496 13.7397 0.833061 14.1822C0.957742 14.3537 1.13344 14.4815 1.33506 14.5472V14.5472Z" fill="#339B76"/>
<path d="M10.026 10.819L7.71302 11.519C6.85715 11.8756 6.15174 12.5185 5.71743 13.3377C5.28312 14.1568 5.14688 15.1015 5.33202 16.01C5.34092 16.0541 5.36161 16.095 5.3919 16.1283C5.42219 16.1616 5.46095 16.1861 5.50404 16.1991C5.54713 16.2121 5.59294 16.2132 5.63661 16.2023C5.68028 16.1914 5.72016 16.1688 5.75202 16.137C6.7199 15.3053 7.89911 14.7578 9.15902 14.555C9.35969 14.4901 9.5347 14.3634 9.65902 14.193C10.0182 13.7495 10.2669 13.227 10.3844 12.6685C10.5019 12.11 10.485 11.5316 10.335 10.981C10.3148 10.919 10.2712 10.8674 10.2135 10.8372C10.1557 10.8069 10.0885 10.8004 10.026 10.819V10.819Z" fill="#339B76"/>
<path d="M2.78817 16.0192L0.476174 15.3192C0.41345 15.3003 0.345832 15.3068 0.28786 15.3373C0.229889 15.3678 0.186195 15.4198 0.166174 15.4822C-0.473826 17.4642 1.13317 19.6642 3.09617 20.4822L3.98317 20.8522C4.02463 20.8694 4.06997 20.8751 4.11441 20.8688C4.15886 20.8625 4.20077 20.8443 4.23576 20.8161C4.27075 20.788 4.29751 20.751 4.31325 20.7089C4.32898 20.6669 4.3331 20.6214 4.32517 20.5772C4.16844 19.6774 4.26112 18.752 4.59317 17.9012C4.62297 17.825 4.63363 17.7427 4.62422 17.6614C4.6148 17.5802 4.5856 17.5025 4.53917 17.4352C4.10395 16.8045 3.49596 16.3128 2.78817 16.0192V16.0192Z" fill="#339B76"/>
<path d="M10.0238 15.3175L7.71181 16.0175C6.97008 16.3262 6.33853 16.8512 5.89939 17.524C5.46026 18.1968 5.2339 18.9862 5.24981 19.7895V23.2495C5.24981 23.4484 5.32883 23.6391 5.46948 23.7798C5.61013 23.9204 5.8009 23.9995 5.99981 23.9995C6.19872 23.9995 6.38948 23.9204 6.53014 23.7798C6.67079 23.6391 6.74981 23.4484 6.74981 23.2495V21.0865C6.74974 20.9876 6.77896 20.891 6.83378 20.8088C6.8886 20.7266 6.96656 20.6624 7.05781 20.6245L7.40381 20.4805C9.36681 19.6625 10.9738 17.4625 10.3338 15.4805C10.314 15.418 10.2703 15.3658 10.2123 15.3352C10.1543 15.3047 10.0865 15.2983 10.0238 15.3175V15.3175Z" fill="#339B76"/>
</svg>
