<svg width="27" height="26" viewBox="0 0 27 26" fill="none" xmlns="http://www.w3.org/2000/svg">
<path d="M25.1549 11.1322L23.0739 9.45881C22.9121 9.32839 22.7858 9.15929 22.7067 8.96714C22.6275 8.775 22.5981 8.56599 22.621 8.35945L22.9098 5.70447C22.9487 5.35192 22.9079 4.99514 22.7904 4.66047C22.673 4.3258 22.4818 4.0218 22.231 3.77094C21.9803 3.52009 21.6764 3.32878 21.3417 3.21115C21.0071 3.09353 20.6504 3.0526 20.2978 3.09138L17.6394 3.37669C17.4329 3.39957 17.2239 3.37008 17.0318 3.29093C16.8397 3.21179 16.6705 3.08553 16.5401 2.92381L14.8667 0.843984C14.6374 0.579091 14.3539 0.36662 14.0352 0.220995C13.7166 0.0753704 13.3704 0 13.0201 0C12.6698 0 12.3235 0.0753704 12.0049 0.220995C11.6863 0.36662 11.4027 0.579091 11.1735 0.843984L9.50011 2.92381C9.37011 3.0861 9.20107 3.21277 9.00881 3.29197C8.81655 3.37117 8.60734 3.40032 8.40075 3.37669L5.74577 3.09138C5.39322 3.05244 5.03644 3.09322 4.70177 3.2107C4.3671 3.32818 4.0631 3.51936 3.81224 3.77011C3.56139 4.02086 3.37008 4.32477 3.25245 4.65939C3.13483 4.994 3.0939 5.35078 3.13268 5.70334L3.42139 8.35832C3.44491 8.5649 3.41571 8.77408 3.33652 8.96632C3.25732 9.15856 3.13072 9.32761 2.96851 9.45768L0.885284 11.1322C0.608963 11.3541 0.385975 11.6353 0.232758 11.9549C0.0795403 12.2745 0 12.6244 0 12.9788C0 13.3332 0.0795403 13.6831 0.232758 14.0027C0.385975 14.3223 0.608963 14.6034 0.885284 14.8254L2.96625 16.4988C3.12837 16.6289 3.25492 16.798 3.3341 16.9902C3.41329 17.1824 3.44254 17.3915 3.41912 17.5981L3.13041 20.2531C3.09148 20.6056 3.13226 20.9624 3.24974 21.2971C3.36722 21.6318 3.55839 21.9358 3.80914 22.1866C4.05989 22.4375 4.3638 22.6288 4.69842 22.7464C5.03304 22.864 5.38981 22.905 5.74237 22.8662L8.39849 22.5775C8.60503 22.5545 8.81403 22.5839 9.00618 22.6631C9.19833 22.7422 9.36743 22.8686 9.49784 23.0304L11.1735 25.1147C11.3954 25.391 11.6766 25.614 11.9962 25.7672C12.3158 25.9205 12.6657 26 13.0201 26C13.3745 26 13.7244 25.9205 14.044 25.7672C14.3636 25.614 14.6447 25.391 14.8667 25.1147L16.5401 23.0338C16.6705 22.872 16.8397 22.7458 17.0318 22.6666C17.2239 22.5875 17.4329 22.558 17.6394 22.5809L20.2944 22.8696C20.6469 22.9085 21.0037 22.8677 21.3384 22.7503C21.6731 22.6328 21.9771 22.4416 22.2279 22.1909C22.4788 21.9401 22.6701 21.6362 22.7877 21.3016C22.9053 20.967 22.9463 20.6102 22.9075 20.2576L22.6188 17.6015C22.5952 17.3949 22.6243 17.1857 22.7035 16.9935C22.7827 16.8012 22.9094 16.6322 23.0717 16.5022L25.1526 14.8288C25.4289 14.6068 25.6519 14.3257 25.8051 14.0061C25.9584 13.6865 26.0379 13.3366 26.0379 12.9822C26.0379 12.6278 25.9584 12.2779 25.8051 11.9583C25.6519 11.6387 25.4289 11.3575 25.1526 11.1356L25.1549 11.1322ZM13.473 16.4512C13.299 16.6777 13.0791 16.8649 12.8275 17.0002C12.576 17.1355 12.2987 17.216 12.0138 17.2363C11.7289 17.2566 11.4429 17.2164 11.1748 17.1181C10.9066 17.0199 10.6623 16.8659 10.4579 16.6663L7.69087 13.906C7.58274 13.8016 7.49648 13.6767 7.43715 13.5385C7.37781 13.4004 7.34658 13.2518 7.34527 13.1015C7.34396 12.9512 7.37261 12.8021 7.42954 12.663C7.48646 12.5238 7.57053 12.3974 7.67684 12.2911C7.78314 12.1848 7.90955 12.1007 8.04869 12.0438C8.18784 11.9869 8.33692 11.9582 8.48725 11.9595C8.63758 11.9608 8.78615 11.9921 8.92428 12.0514C9.06241 12.1107 9.18734 12.197 9.29179 12.3051L11.8403 14.8537L16.2661 8.95385C16.4462 8.71363 16.7144 8.55482 17.0117 8.51236C17.1589 8.49133 17.3088 8.4995 17.4528 8.5364C17.5968 8.5733 17.7322 8.63821 17.8511 8.72741C17.9701 8.81662 18.0703 8.92839 18.146 9.05632C18.2218 9.18426 18.2716 9.32586 18.2926 9.47305C18.3137 9.62024 18.3055 9.77012 18.2686 9.91415C18.2317 10.0582 18.1668 10.1935 18.0776 10.3125L13.473 16.4512Z" fill="#339B76"/>
</svg>
