<svg width="19" height="22" viewBox="0 0 19 22" fill="none" xmlns="http://www.w3.org/2000/svg">
<path d="M12.833 5.50122C12.0047 5.46514 11.1775 5.59253 10.3984 5.87613C10.3636 5.89026 10.3258 5.89561 10.2885 5.89171C10.2511 5.88781 10.2153 5.87478 10.1841 5.85378C10.153 5.83277 10.1275 5.80442 10.1098 5.77124C10.0922 5.73805 10.083 5.70104 10.0831 5.66347V5.0429C10.0831 4.31357 9.79336 3.61412 9.27765 3.09841C8.76193 2.58269 8.06248 2.29297 7.33315 2.29297H5.49986C5.25675 2.29297 5.0236 2.38954 4.8517 2.56145C4.67979 2.73335 4.58322 2.9665 4.58322 3.20961C4.58322 3.45272 4.67979 3.68587 4.8517 3.85778C5.0236 4.02968 5.25675 4.12626 5.49986 4.12626H7.33315C7.57626 4.12626 7.80941 4.22283 7.98132 4.39474C8.15322 4.56664 8.2498 4.79979 8.2498 5.0429V5.66347C8.24999 5.7012 8.24079 5.73838 8.22303 5.77166C8.20526 5.80495 8.1795 5.83329 8.14805 5.85413C8.11692 5.87489 8.0812 5.88774 8.04398 5.89157C8.00677 5.8954 7.96918 5.8901 7.93447 5.87613C7.15542 5.59253 6.32814 5.46514 5.49986 5.50122C2.41627 5.50122 0 8.52065 0 12.3761C0 16.0023 2.78476 22.0008 5.95819 22.0008C7.60814 22.0008 8.09488 21.6873 8.51837 21.3097C8.6001 21.2225 8.70176 21.1564 8.81464 21.1171C8.92752 21.0778 9.04823 21.0665 9.16644 21.0842C9.28464 21.0665 9.40536 21.0778 9.51824 21.1171C9.63111 21.1564 9.73278 21.2225 9.81451 21.3097C10.238 21.6873 10.7238 22.0008 12.3747 22.0008C15.5481 22.0008 18.3329 16.0023 18.3329 12.3761C18.3329 8.52065 15.9166 5.50122 12.833 5.50122Z" fill="#339B76"/>
<path d="M11.6416 4.96326C12.6256 4.82233 13.5374 4.3661 14.2401 3.66302C14.9429 2.95995 15.3987 2.04794 15.5391 1.06385C15.5598 0.920466 15.5466 0.774248 15.5008 0.63682C15.455 0.499393 15.3778 0.374545 15.2753 0.272203C15.1728 0.16986 15.0478 0.0928437 14.9103 0.0472761C14.7728 0.00170862 14.6265 -0.0111537 14.4832 0.00971157C13.4988 0.150608 12.5867 0.606903 11.8836 1.31014C11.1805 2.01337 10.7244 2.92562 10.5838 3.91003C10.563 4.05356 10.5762 4.19995 10.6221 4.33751C10.668 4.47507 10.7454 4.59999 10.8482 4.70231C10.9509 4.80463 11.0762 4.88151 11.2139 4.92682C11.3517 4.97213 11.4981 4.9846 11.6416 4.96326V4.96326Z" fill="#339B76"/>
</svg>
