<svg width="22" height="22" viewBox="0 0 22 22" fill="none" xmlns="http://www.w3.org/2000/svg">
<path d="M8.56351 14.7577C8.63124 14.7787 8.70293 14.7837 8.77293 14.7723C8.84292 14.7609 8.90932 14.7335 8.9669 14.692C9.02447 14.6506 9.07165 14.5964 9.10473 14.5337C9.13781 14.471 9.15587 14.4014 9.15751 14.3305C9.22269 13.0183 9.54243 11.7312 10.0989 10.541C10.1343 10.4685 10.1498 10.3879 10.144 10.3074C10.1382 10.2269 10.1113 10.1494 10.0659 10.0827C9.31238 8.95488 8.29238 8.03026 7.09624 7.3907C5.9001 6.75114 4.56472 6.41636 3.20833 6.41602C3.08678 6.41602 2.9702 6.4643 2.88424 6.55026C2.79829 6.63621 2.75 6.75279 2.75 6.87435C2.75202 8.63648 3.3172 10.3518 4.36305 11.7701C5.4089 13.1883 6.88066 14.2351 8.56351 14.7577V14.7577Z" fill="#339B76"/>
<path d="M8.2546 6.46889C9.24153 7.07792 10.1109 7.85944 10.8213 8.77614C10.8427 8.80444 10.8704 8.82739 10.9023 8.84318C10.9341 8.85898 10.9691 8.8672 11.0046 8.8672C11.0401 8.8672 11.0751 8.85898 11.107 8.84318C11.1388 8.82739 11.1665 8.80444 11.1879 8.77614C11.8971 7.85923 12.7648 7.07686 13.75 6.46614C13.8201 6.42295 13.8773 6.36168 13.9155 6.28878C13.9537 6.21587 13.9716 6.13401 13.9673 6.0518C13.853 3.81778 12.9109 1.70637 11.3245 0.12921C11.2368 0.0462377 11.1207 0 11 0C10.8793 0 10.7632 0.0462377 10.6755 0.12921C9.09292 1.70954 8.15316 3.82098 8.03826 6.05455C8.03383 6.13667 8.05158 6.21847 8.08964 6.29137C8.12771 6.36427 8.18468 6.42559 8.2546 6.46889V6.46889Z" fill="#339B76"/>
<path d="M17.875 17.416C16.9426 17.416 16.0377 17.7324 15.3084 18.3135C15.2561 18.3551 15.1954 18.3848 15.1304 18.4004C15.0655 18.4161 14.9979 18.4174 14.9324 18.4042C14.8669 18.391 14.8051 18.3637 14.7513 18.3241C14.6975 18.2845 14.6529 18.2336 14.6209 18.175C14.1088 17.2419 13.2542 16.5441 12.2375 16.229C12.1445 16.1997 12.0632 16.1415 12.0055 16.0629C11.9478 15.9842 11.9167 15.8892 11.9167 15.7917V15.4736C11.9166 15.3646 11.9554 15.2591 12.0262 15.1761C12.0969 15.0931 12.1949 15.038 12.3026 15.0208C14.2392 14.7087 16.0016 13.7177 17.2744 12.2252C18.5473 10.7327 19.2476 8.83594 19.25 6.87435C19.25 6.75279 19.2017 6.63621 19.1158 6.55026C19.0298 6.4643 18.9133 6.41602 18.7917 6.41602C16.6044 6.41844 14.5074 7.28842 12.9607 8.83507C11.4141 10.3817 10.5441 12.4787 10.5417 14.666V15.6744C10.5417 15.78 10.5052 15.8824 10.4384 15.9643C10.3716 16.0461 10.2785 16.1024 10.175 16.1235C9.58828 16.2415 9.03439 16.4862 8.5521 16.8406C8.0698 17.1949 7.67075 17.6504 7.38285 18.175C7.35076 18.2336 7.30625 18.2845 7.25243 18.3241C7.19862 18.3637 7.1368 18.391 7.0713 18.4042C7.00581 18.4174 6.93822 18.4161 6.87328 18.4004C6.80834 18.3848 6.74761 18.3551 6.69535 18.3135C6.08809 17.8297 5.35662 17.5271 4.58505 17.4405C3.81349 17.3539 3.03314 17.4868 2.33376 17.824C1.63437 18.1611 1.04433 18.6888 0.631486 19.3464C0.218643 20.0039 -0.000241384 20.7646 1.99762e-07 21.541C1.99762e-07 21.6626 0.0482889 21.7792 0.134243 21.8651C0.220198 21.9511 0.336777 21.9994 0.458334 21.9994H21.5417C21.6633 21.9994 21.7798 21.9511 21.8658 21.8651C21.9518 21.7792 22 21.6626 22 21.541C21.9988 20.4474 21.5638 19.3989 20.7905 18.6256C20.0172 17.8522 18.9687 17.4172 17.875 17.416Z" fill="#339B76"/>
</svg>
